<?xml version="1.0" encoding="UTF-8"?>
<svg xmlns="http://www.w3.org/2000/svg" xmlns:xlink="http://www.w3.org/1999/xlink" width="100px" height="116px" viewBox="0 0 100 115" version="1.1">
<g id="surface1">
<path style=" stroke:none;fill-rule:nonzero;fill:rgb(0%,0%,0%);fill-opacity:1;" d="M 50.050781 0 L 0 28.75 L 0 86.25 L 50.167969 115 L 99.992188 86.363281 L 99.992188 28.636719 Z M 11.078125 80.515625 L 11.078125 35.179688 L 50.03125 12.375 L 89.140625 34.574219 L 89.140625 80.152344 L 50.179688 103.085938 Z M 31.058594 69.269531 L 31.058594 85.410156 L 16.921875 77.722656 L 16.921875 61.082031 Z M 33.613281 44.355469 L 46.09375 37.113281 L 31.957031 28.808594 L 19.386719 36.207031 Z M 50.496094 39.339844 L 37.851562 46.785156 L 50.722656 54.15625 L 63.261719 46.835938 Z M 48.128906 58.449219 L 35.460938 51.195312 L 35.460938 66.195312 L 48.128906 73.082031 Z M 66.730469 44.8125 L 80.609375 36.710938 L 67.804688 29.195312 L 53.898438 37.382812 Z M 63.398438 26.964844 L 49.261719 18.664062 L 35.355469 26.847656 L 49.492188 35.035156 Z M 16.921875 40.574219 L 16.921875 55.660156 L 31.058594 63.347656 L 31.058594 48.671875 Z M 68.78125 69.851562 L 68.78125 86.042969 L 83.070312 77.609375 L 83.070312 61.132812 Z M 68.78125 49.421875 L 68.78125 63.960938 L 83.070312 55.546875 L 83.070312 41.082031 Z M 53.097656 58.578125 L 53.097656 73.152344 L 65.765625 65.695312 L 65.765625 51.183594 Z M 53.097656 78.75 L 53.097656 95.214844 L 65.765625 87.757812 L 65.765625 71.726562 Z M 48.128906 78.703125 L 35.460938 71.613281 L 35.460938 88.257812 L 48.128906 95.144531 Z M 48.128906 78.703125 "/>
</g>
</svg>
